# Blender v2.83.1 OBJ File: '7x12W_ZOOM_LED_MINI_Stage_Light_V1.blend'
# www.blender.org
o Display_Cube.007
v 1.072859 1.993508 7.122264
v 1.181050 1.885317 7.122264
v 1.072859 1.993508 6.995326
v 1.072859 2.184561 7.122264
v 1.142997 2.026397 7.210651
v 1.213939 1.955455 7.210651
v 1.142997 2.151672 7.210651
v 1.213939 2.222614 7.210651
v 1.339214 2.222614 7.210651
v 1.181050 2.292752 7.122264
v 1.181050 2.292752 6.995326
v 1.372103 2.292752 7.122264
v 1.372103 2.292752 6.995326
v 1.480294 2.184561 7.122264
v 1.480294 2.184561 6.995326
v 1.480294 1.993508 7.122264
v 1.410156 2.151672 7.210651
v 1.410156 2.026397 7.210651
v 1.339214 1.955455 7.210651
v 1.372103 1.885317 7.122264
v 1.372103 1.885317 6.995326
v 1.480294 1.993508 6.995326
v 1.181050 1.885317 6.995326
v 1.072859 2.184561 6.995326
v -1.493984 1.993508 7.122264
v -1.385793 1.885317 7.122264
v -1.493984 1.993508 6.995326
v -1.493984 2.184561 7.122264
v -1.423846 2.026397 7.210651
v -1.352904 1.955455 7.210651
v -1.423846 2.151672 7.210651
v -1.352904 2.222614 7.210651
v -1.227629 2.222614 7.210651
v -1.385793 2.292752 7.122264
v -1.385793 2.292752 6.995326
v -1.194740 2.292752 7.122264
v -1.194740 2.292752 6.995326
v -1.086549 2.184561 7.122264
v -1.086549 2.184561 6.995326
v -1.086549 1.993508 7.122264
v -1.156687 2.151672 7.210651
v -1.156687 2.026397 7.210651
v -1.227629 1.955455 7.210651
v -1.194740 1.885317 7.122264
v -1.194740 1.885317 6.995326
v -1.086549 1.993508 6.995326
v -1.385793 1.885317 6.995326
v -1.493984 2.184561 6.995326
v -0.638370 1.993508 7.122264
v -0.530179 1.885317 7.122264
v -0.638370 1.993508 6.995326
v -0.638370 2.184561 7.122264
v -0.568232 2.026397 7.210651
v -0.497290 1.955455 7.210651
v -0.568232 2.151672 7.210651
v -0.497290 2.222614 7.210651
v -0.372015 2.222614 7.210651
v -0.530179 2.292752 7.122264
v -0.530179 2.292752 6.995326
v -0.339126 2.292752 7.122264
v -0.339126 2.292752 6.995326
v -0.230934 2.184561 7.122264
v -0.230934 2.184561 6.995326
v -0.230934 1.993508 7.122264
v -0.301073 2.151672 7.210651
v -0.301073 2.026397 7.210651
v -0.372015 1.955455 7.210651
v -0.339126 1.885317 7.122264
v -0.339126 1.885317 6.995326
v -0.230934 1.993508 6.995326
v -0.530179 1.885317 6.995326
v -0.638370 2.184561 6.995326
v 0.217244 1.993508 7.122264
v 0.325436 1.885317 7.122264
v 0.217244 1.993508 6.995326
v 0.217244 2.184561 7.122264
v 0.287382 2.026397 7.210651
v 0.358324 1.955455 7.210651
v 0.287382 2.151672 7.210651
v 0.358324 2.222614 7.210651
v 0.483600 2.222614 7.210651
v 0.325436 2.292752 7.122264
v 0.325436 2.292752 6.995326
v 0.516489 2.292752 7.122264
v 0.516489 2.292752 6.995326
v 0.624680 2.184561 7.122264
v 0.624680 2.184561 6.995326
v 0.624680 1.993508 7.122264
v 0.554542 2.151672 7.210651
v 0.554542 2.026397 7.210651
v 0.483600 1.955455 7.210651
v 0.516489 1.885317 7.122264
v 0.516489 1.885317 6.995326
v 0.624680 1.993508 6.995326
v 0.325436 1.885317 6.995326
v 0.217244 2.184561 6.995326
v -1.093538 2.739309 7.000285
v -1.291414 2.937185 7.000285
v 1.093538 2.739309 7.000285
v -1.093538 2.739309 7.091692
v -1.071475 2.792572 7.144956
v -1.291414 2.937185 7.091692
v 1.093538 2.739309 7.091692
v 1.071476 2.792572 7.144956
v 1.291414 2.937185 7.091692
v 1.238151 2.959248 7.144956
v 1.291414 3.870965 7.091692
v 1.291414 2.937185 7.000285
v 1.291414 3.870965 7.000285
v 1.093538 4.068841 7.000285
v -1.093538 4.068841 7.000285
v 1.093538 4.068841 7.091692
v 1.071476 4.015578 7.144956
v -1.093538 4.068841 7.091692
v -1.071475 4.015578 7.144956
v -1.291414 3.870965 7.091692
v -1.238150 3.848902 7.144956
v -1.291414 3.870965 7.000285
v -1.238150 2.959248 7.144956
v 1.238151 3.848902 7.144956
vt 0.125000 0.750000
vt 0.191385 0.750000
vt 0.191385 0.750000
vt 0.125000 0.750000
vt 0.191385 0.500000
vt 0.125000 0.500000
vt 0.441386 0.000000
vt 0.558614 0.000000
vt 0.558614 0.250000
vt 0.441386 0.250000
vt 0.441386 0.000000
vt 0.558614 0.000000
vt 0.375000 0.816386
vt 0.441386 0.750000
vt 0.558614 0.750000
vt 0.625000 0.816386
vt 0.625000 0.933614
vt 0.558614 1.000000
vt 0.441386 1.000000
vt 0.375000 0.933615
vt 0.808615 0.750000
vt 0.875000 0.750000
vt 0.875000 0.750000
vt 0.808615 0.750000
vt 0.691385 0.750000
vt 0.691385 0.750000
vt 0.808615 0.500000
vt 0.875000 0.500000
vt 0.691386 0.500000
vt 0.558614 0.750000
vt 0.558614 0.500000
vt 0.441386 0.500000
vt 0.441386 0.750000
vt 0.308615 0.750000
vt 0.308615 0.750000
vt 0.308615 0.500000
vt 0.375000 0.316385
vt 0.625000 0.316386
vt 0.625000 0.433615
vt 0.375000 0.433615
vt 0.125000 0.750000
vt 0.191385 0.750000
vt 0.191385 0.750000
vt 0.125000 0.750000
vt 0.191385 0.500000
vt 0.125000 0.500000
vt 0.441386 0.000000
vt 0.558614 0.000000
vt 0.558614 0.250000
vt 0.441386 0.250000
vt 0.441386 0.000000
vt 0.558614 0.000000
vt 0.375000 0.816386
vt 0.441386 0.750000
vt 0.558614 0.750000
vt 0.625000 0.816386
vt 0.625000 0.933614
vt 0.558614 1.000000
vt 0.441386 1.000000
vt 0.375000 0.933615
vt 0.808615 0.750000
vt 0.875000 0.750000
vt 0.875000 0.750000
vt 0.808615 0.750000
vt 0.691385 0.750000
vt 0.691385 0.750000
vt 0.808615 0.500000
vt 0.875000 0.500000
vt 0.691386 0.500000
vt 0.558614 0.750000
vt 0.558614 0.500000
vt 0.441386 0.500000
vt 0.441386 0.750000
vt 0.308615 0.750000
vt 0.308615 0.750000
vt 0.308615 0.500000
vt 0.375000 0.316385
vt 0.625000 0.316386
vt 0.625000 0.433615
vt 0.375000 0.433615
vt 0.125000 0.750000
vt 0.191385 0.750000
vt 0.191385 0.750000
vt 0.125000 0.750000
vt 0.191385 0.500000
vt 0.125000 0.500000
vt 0.441386 0.000000
vt 0.558614 0.000000
vt 0.558614 0.250000
vt 0.441386 0.250000
vt 0.441386 0.000000
vt 0.558614 0.000000
vt 0.375000 0.816386
vt 0.441386 0.750000
vt 0.558614 0.750000
vt 0.625000 0.816386
vt 0.625000 0.933614
vt 0.558614 1.000000
vt 0.441386 1.000000
vt 0.375000 0.933615
vt 0.808615 0.750000
vt 0.875000 0.750000
vt 0.875000 0.750000
vt 0.808615 0.750000
vt 0.691385 0.750000
vt 0.691385 0.750000
vt 0.808615 0.500000
vt 0.875000 0.500000
vt 0.691386 0.500000
vt 0.558614 0.750000
vt 0.558614 0.500000
vt 0.441386 0.500000
vt 0.441386 0.750000
vt 0.308615 0.750000
vt 0.308615 0.750000
vt 0.308615 0.500000
vt 0.375000 0.316385
vt 0.625000 0.316386
vt 0.625000 0.433615
vt 0.375000 0.433615
vt 0.125000 0.750000
vt 0.191385 0.750000
vt 0.191385 0.750000
vt 0.125000 0.750000
vt 0.191385 0.500000
vt 0.125000 0.500000
vt 0.441386 0.000000
vt 0.558614 0.000000
vt 0.558614 0.250000
vt 0.441386 0.250000
vt 0.441386 0.000000
vt 0.558614 0.000000
vt 0.375000 0.816386
vt 0.441386 0.750000
vt 0.558614 0.750000
vt 0.625000 0.816386
vt 0.625000 0.933614
vt 0.558614 1.000000
vt 0.441386 1.000000
vt 0.375000 0.933615
vt 0.808615 0.750000
vt 0.875000 0.750000
vt 0.875000 0.750000
vt 0.808615 0.750000
vt 0.691385 0.750000
vt 0.691385 0.750000
vt 0.808615 0.500000
vt 0.875000 0.500000
vt 0.691386 0.500000
vt 0.558614 0.750000
vt 0.558614 0.500000
vt 0.441386 0.500000
vt 0.441386 0.750000
vt 0.308615 0.750000
vt 0.308615 0.750000
vt 0.308615 0.500000
vt 0.375000 0.316385
vt 0.625000 0.316386
vt 0.625000 0.433615
vt 0.375000 0.433615
vt 0.144153 0.500000
vt 0.144153 0.657958
vt 0.125000 0.657958
vt 0.125000 0.500000
vt 0.375000 0.269153
vt 0.412208 0.250000
vt 0.587792 0.250000
vt 0.625000 0.269153
vt 0.625000 0.480847
vt 0.587792 0.500000
vt 0.412208 0.500000
vt 0.375000 0.480847
vt 0.355847 0.500000
vt 0.355847 0.657958
vt 0.385015 0.771288
vt 0.385015 0.978711
vt 0.375000 0.980847
vt 0.375000 0.769153
vt 0.416356 0.994844
vt 0.412208 1.000000
vt 0.416356 0.755155
vt 0.412208 0.750000
vt 0.412208 0.657958
vt 0.587792 0.657958
vt 0.583644 0.755155
vt 0.644153 0.500000
vt 0.644153 0.657958
vt 0.855847 0.500000
vt 0.855847 0.657958
vt 0.853711 0.750000
vt 0.646289 0.750000
vt 0.614985 0.771289
vt 0.587792 0.750000
vt 0.625000 0.769153
vt 0.583644 0.994844
vt 0.614985 0.978711
vt 0.625000 0.980847
vt 0.587792 1.000000
vt 0.875000 0.500000
vt 0.875000 0.657958
vt 0.412208 0.092042
vt 0.587792 0.092042
vn -0.5456 -0.5456 0.6360
vn -0.7071 -0.7071 0.0000
vn -1.0000 0.0000 0.0000
vn -0.7833 0.0000 0.6216
vn 0.0000 0.0000 1.0000
vn -0.5457 0.5457 0.6360
vn 0.0000 0.7833 0.6216
vn -0.7071 0.7071 0.0000
vn 0.0000 1.0000 0.0000
vn 0.7071 0.7071 0.0000
vn 0.5456 0.5457 0.6360
vn 1.0000 0.0000 0.0000
vn 0.7833 0.0000 0.6216
vn 0.5456 -0.5456 0.6360
vn 0.0000 -0.7833 0.6216
vn 0.7071 -0.7071 0.0000
vn 0.0000 -1.0000 0.0000
vn 0.0000 0.0000 -1.0000
vn -0.5456 0.5457 0.6360
vn -0.5456 -0.5457 0.6360
vn 0.5456 -0.5457 0.6360
vn 0.2597 -0.6269 0.7345
vn -0.2597 -0.6269 0.7345
vn -0.6269 -0.2597 0.7345
vn 0.6269 -0.2597 0.7345
vn 0.6269 0.2597 0.7345
vn 0.2597 0.6269 0.7345
vn -0.2597 0.6269 0.7345
vn -0.6269 0.2597 0.7345
s 1
f 1/1/1 2/2/1 6/3/1 5/4/1
f 23/5/2 2/2/2 1/1/2 3/6/2
f 1/7/3 4/8/3 24/9/3 3/10/3
f 4/8/4 1/7/4 5/11/4 7/12/4
f 19/13/5 18/14/5 17/15/5 9/16/5 8/17/5 7/18/5 5/19/5 6/20/5
f 10/21/6 4/22/6 7/23/6 8/24/6
f 12/25/7 10/21/7 8/24/7 9/26/7
f 10/21/8 11/27/8 24/28/8 4/22/8
f 13/29/9 11/27/9 10/21/9 12/25/9
f 13/29/10 12/25/10 14/30/10 15/31/10
f 14/30/11 12/25/11 9/26/11 17/15/11
f 22/32/12 15/31/12 14/30/12 16/33/12
f 16/33/13 14/30/13 17/15/13 18/14/13
f 20/34/14 16/33/14 18/14/14 19/35/14
f 2/2/15 20/34/15 19/35/15 6/3/15
f 20/34/16 21/36/16 22/32/16 16/33/16
f 23/5/17 21/36/17 20/34/17 2/2/17
f 23/37/18 3/10/18 24/9/18 11/38/18 13/39/18 15/31/18 22/32/18 21/40/18
f 25/41/1 26/42/1 30/43/1 29/44/1
f 47/45/2 26/42/2 25/41/2 27/46/2
f 25/47/3 28/48/3 48/49/3 27/50/3
f 28/48/4 25/47/4 29/51/4 31/52/4
f 43/53/5 42/54/5 41/55/5 33/56/5 32/57/5 31/58/5 29/59/5 30/60/5
f 34/61/19 28/62/19 31/63/19 32/64/19
f 36/65/7 34/61/7 32/64/7 33/66/7
f 34/61/8 35/67/8 48/68/8 28/62/8
f 37/69/9 35/67/9 34/61/9 36/65/9
f 37/69/10 36/65/10 38/70/10 39/71/10
f 38/70/11 36/65/11 33/66/11 41/55/11
f 46/72/12 39/71/12 38/70/12 40/73/12
f 40/73/13 38/70/13 41/55/13 42/54/13
f 44/74/14 40/73/14 42/54/14 43/75/14
f 26/42/15 44/74/15 43/75/15 30/43/15
f 44/74/16 45/76/16 46/72/16 40/73/16
f 47/45/17 45/76/17 44/74/17 26/42/17
f 47/77/18 27/50/18 48/49/18 35/78/18 37/79/18 39/71/18 46/72/18 45/80/18
f 49/81/20 50/82/20 54/83/20 53/84/20
f 71/85/2 50/82/2 49/81/2 51/86/2
f 49/87/3 52/88/3 72/89/3 51/90/3
f 52/88/4 49/87/4 53/91/4 55/92/4
f 67/93/5 66/94/5 65/95/5 57/96/5 56/97/5 55/98/5 53/99/5 54/100/5
f 58/101/19 52/102/19 55/103/19 56/104/19
f 60/105/7 58/101/7 56/104/7 57/106/7
f 58/101/8 59/107/8 72/108/8 52/102/8
f 61/109/9 59/107/9 58/101/9 60/105/9
f 61/109/10 60/105/10 62/110/10 63/111/10
f 62/110/11 60/105/11 57/106/11 65/95/11
f 70/112/12 63/111/12 62/110/12 64/113/12
f 64/113/13 62/110/13 65/95/13 66/94/13
f 68/114/21 64/113/21 66/94/21 67/115/21
f 50/82/15 68/114/15 67/115/15 54/83/15
f 68/114/16 69/116/16 70/112/16 64/113/16
f 71/85/17 69/116/17 68/114/17 50/82/17
f 71/117/18 51/90/18 72/89/18 59/118/18 61/119/18 63/111/18 70/112/18 69/120/18
f 73/121/20 74/122/20 78/123/20 77/124/20
f 95/125/2 74/122/2 73/121/2 75/126/2
f 73/127/3 76/128/3 96/129/3 75/130/3
f 76/128/4 73/127/4 77/131/4 79/132/4
f 91/133/5 90/134/5 89/135/5 81/136/5 80/137/5 79/138/5 77/139/5 78/140/5
f 82/141/6 76/142/6 79/143/6 80/144/6
f 84/145/7 82/141/7 80/144/7 81/146/7
f 82/141/8 83/147/8 96/148/8 76/142/8
f 85/149/9 83/147/9 82/141/9 84/145/9
f 85/149/10 84/145/10 86/150/10 87/151/10
f 86/150/11 84/145/11 81/146/11 89/135/11
f 94/152/12 87/151/12 86/150/12 88/153/12
f 88/153/13 86/150/13 89/135/13 90/134/13
f 92/154/21 88/153/21 90/134/21 91/155/21
f 74/122/15 92/154/15 91/155/15 78/123/15
f 92/154/16 93/156/16 94/152/16 88/153/16
f 95/125/17 93/156/17 92/154/17 74/122/17
f 95/157/18 75/130/18 96/129/18 83/158/18 85/159/18 87/151/18 94/152/18 93/160/18
f 97/161/2 100/162/2 102/163/2 98/164/2
f 97/165/18 98/166/18 118/167/18 111/168/18 110/169/18 109/170/18 108/171/18 99/172/18
f 97/161/17 99/173/17 103/174/17 100/162/17
f 104/175/22 101/176/23 100/177/23 103/178/22
f 101/176/23 119/179/24 102/180/24 100/177/23
f 106/181/25 104/175/22 103/178/22 105/182/25
f 103/174/16 99/173/16 108/171/16 105/183/16
f 105/183/25 107/184/26 120/185/26 106/181/25
f 108/171/12 109/170/12 107/184/12 105/183/12
f 110/186/10 112/187/10 107/184/10 109/170/10
f 110/186/9 111/188/9 114/189/9 112/187/9
f 112/187/27 114/189/28 115/190/28 113/191/27
f 113/192/27 120/185/26 107/193/26 112/194/27
f 117/195/29 115/196/28 114/197/28 116/198/29
f 114/189/8 111/188/8 118/199/8 116/200/8
f 119/179/24 117/195/29 116/198/29 102/180/24
f 102/201/3 116/202/3 118/167/3 98/166/3
f 104/175/5 106/181/5 120/185/5 113/192/5 115/196/5 117/195/5 119/179/5 101/176/5
